<?xml version="1.0" encoding="UTF-8"?>
<svg width="16px" height="16px" viewBox="0 0 16 16" version="1.1" xmlns="http://www.w3.org/2000/svg" xmlns:xlink="http://www.w3.org/1999/xlink">
    <title>QQ</title>
    <g id="icons" stroke="none" stroke-width="1" fill="none" fill-rule="evenodd">
        <g id="QQ" fill-rule="nonzero">
            <rect id="Rectangle" fill="#000000" opacity="0" x="0" y="0" width="16" height="16"></rect>
            <path d="M7.98496875,15.4209375 C6.64898437,15.4209375 5.42267187,15.0039688 4.633125,14.3811875 C4.2321875,14.4928906 3.71928125,14.6726719 3.39559375,14.8955781 C3.11864062,15.0862344 3.15315625,15.2806875 3.20309375,15.3591719 C3.42226562,15.704 6.9628125,15.5793594 7.98496875,15.4719688 L7.98496875,15.4209531 L7.98496875,15.4209375 Z" id="Path" fill="#FAAD08"></path>
            <path d="M7.74415625,15.4209375 C9.080125,15.4209375 10.3064531,15.0039688 11.0960156,14.3811875 C11.4969531,14.4928906 12.0098438,14.6726719 12.3335625,14.8955781 C12.6105,15.0862344 12.5759375,15.2806875 12.5260625,15.3591719 C12.3068906,15.704 8.76632813,15.5793594 7.74415625,15.4719688 L7.74415625,15.4209531 L7.74415625,15.4209375 Z" id="Path" fill="#FAAD08"></path>
            <path d="M7.75214063,7.37542188 C9.95104688,7.36079688 11.7132969,6.9456875 12.3104219,6.78640625 C12.4527656,6.74840625 12.5289219,6.68032813 12.5289219,6.68032813 C12.5294219,6.66079688 12.5379531,6.33114063 12.5379531,6.16107813 C12.5379531,3.29721875 11.1520938,0.419546875 7.74401563,0.419359375 C4.3359375,0.419546875 2.95,3.29720313 2.95,6.16109375 C2.95,6.33115625 2.95859375,6.6608125 2.95910938,6.68034375 C2.95910938,6.68034375 3.0210625,6.74403125 3.13459375,6.77484375 C3.68589063,6.92451563 5.4813125,7.3605 7.73592188,7.37542188 L7.752125,7.37542188 L7.75214063,7.37542188 Z M13.8047031,9.79635937 C13.6693906,9.36159375 13.4846406,8.85459375 13.2975937,8.36770313 C13.2975937,8.36770313 13.19,8.35445313 13.135625,8.37017188 C11.457125,8.85692188 9.42275,9.16714063 7.87242187,9.14842188 L7.85639062,9.14842188 C6.31476562,9.16695313 4.29417187,8.86029687 2.62132812,8.37829688 C2.55742187,8.35992187 2.43120312,8.36771875 2.43120312,8.36771875 C2.24417187,8.85459375 2.0594375,9.36159375 1.924125,9.79635937 C1.2788125,11.8694688 1.487875,12.7274063 1.64707812,12.7466406 C1.98867187,12.7878594 2.97675,11.1860156 2.97675,11.1860156 C2.97675,12.8136719 4.4488125,15.3129688 7.81967187,15.3359531 C7.84948948,15.3358417 7.8793074,15.3358417 7.909125,15.3359531 C11.2800312,15.3129688 12.7520469,12.8137031 12.7520469,11.1860313 C12.7520469,11.1860313 13.7401094,12.7878906 14.0817656,12.7466563 C14.2409219,12.7274219 14.4499844,11.8694688 13.8047031,9.79635938" id="Shape" fill="#000000"></path>
            <path d="M6.706375,4.74860938 C6.241375,4.76928125 5.84395313,4.24684375 5.81903125,3.58267187 C5.79375,2.9180625 6.15001563,2.3625625 6.615125,2.34178125 C7.0796875,2.32139063 7.47682813,2.84359375 7.50207813,3.50803125 C7.52753125,4.17264063 7.1711875,4.72803125 6.706375,4.74860938 M10.150875,3.58267188 C10.1259844,4.24684375 9.72853125,4.76925 9.26353125,4.74860938 C8.79875,4.72798438 8.44239063,4.17264063 8.46784375,3.50803125 C8.4930625,2.8435625 8.8901875,2.32134375 9.35478125,2.34179688 C9.8199375,2.36257813 10.1761875,2.9180625 10.1508906,3.5826875" id="Shape" fill="#FFFFFF"></path>
            <path d="M10.8657031,5.61045313 C10.7436719,5.31696875 9.51467187,4.99 7.99315625,4.99 L7.97682812,4.99 C6.45532812,4.99 5.2263125,5.31696875 5.10429687,5.61045313 C5.09847485,5.62360478 5.09539062,5.63782052 5.09539062,5.65220313 C5.09539062,5.67334375 5.10192187,5.6924375 5.11214062,5.70864063 C5.21495312,5.87139063 6.57970312,6.67559375 7.97684375,6.67559375 L7.99317187,6.67559375 C9.39029687,6.67559375 10.7550156,5.8714375 10.8578594,5.70867188 C10.8686785,5.6917717 10.8744713,5.67214453 10.8745625,5.65207813 C10.8745625,5.63774097 10.8714922,5.62356967 10.8657031,5.61045313" id="Path" fill="#FAAD08"></path>
            <path d="M7.26053125,3.75624004 C7.28153125,4.0311397 7.1375625,4.27534715 6.9394375,4.3020325 C6.74098437,4.32875029 6.56328125,4.12756385 6.54215625,3.85251819 C6.5214375,3.57748875 6.66517187,3.3332813 6.863,3.30680684 C7.06178125,3.28000793 7.23978125,3.4813566 7.26053125,3.75624004 M8.4788125,3.89354387 C8.52103125,3.82229642 8.80926563,3.44763086 9.4058125,3.5840587 C9.5625,3.61987709 9.63498438,3.67258269 9.65028125,3.69334697 C9.67285937,3.72397429 9.67903125,3.76757929 9.65614062,3.82630328 C9.61078125,3.9426806 9.51717187,3.93951729 9.46525,3.91674147 C9.43175,3.90202803 9.01625,3.64180937 8.6335,4.03013393 C8.60717188,4.05686795 8.5600625,4.06601721 8.51540625,4.03431923 C8.47078125,4.00258881 8.4523125,3.93823575 8.4788125,3.89354387" id="Shape" fill="#000000"></path>
            <path d="M7.87220312,9.20825 L7.85609375,9.20825 C6.796625,9.22078125 5.512,9.0831875 4.268,8.84292188 C4.16148437,9.44729687 4.09715625,10.2068906 4.15239062,11.1128437 C4.29189062,13.4025781 5.67939062,14.8417813 7.82103125,14.8627812 L7.9080625,14.8627812 C10.0497031,14.8417812 11.4372031,13.4025781 11.57675,11.1128437 C11.6319844,10.2068125 11.567625,9.44721875 11.4610781,8.84279687 C10.2168437,9.0831875 8.932,9.22085937 7.87220312,9.20825" id="Path" fill="#FFFFFF"></path>
            <path d="M4.85457812,9.08359375 L4.85457812,11.3747344 C4.85457812,11.3747344 5.9371875,11.5864844 7.02176562,11.4398906 L7.02176562,9.32651563 C6.33467187,9.2888125 5.59364062,9.20479688 4.85457812,9.08359375" id="Path" fill="#EB1C26"></path>
            <path d="M12.601625,6.67559375 C12.601625,6.67559375 10.568625,7.34871875 7.8725625,7.36792187 L7.85654688,7.36792187 C5.16492188,7.34879687 3.13440625,6.67790625 3.12748438,6.67559375 L2.4465625,8.45814062 C4.14965625,8.99664062 6.26051563,9.34371875 7.85653125,9.3235625 L7.87253125,9.32353125 C9.46865625,9.34379688 11.5791875,8.99670312 13.2825312,8.45814063 L12.6016094,6.67559375 L12.601625,6.67559375 Z" id="Path" fill="#EB1C26"></path>
        </g>
    </g>
</svg>