<?xml version="1.0" encoding="UTF-8"?>
<svg width="16px" height="16px" viewBox="0 0 16 16" version="1.1" xmlns="http://www.w3.org/2000/svg" xmlns:xlink="http://www.w3.org/1999/xlink">
    <title>wechat</title>
    <g id="icons" stroke="none" stroke-width="1" fill="none" fill-rule="evenodd">
        <g id="wechat" fill-rule="nonzero">
            <rect id="Rectangle" fill="#000000" opacity="0" x="0" y="0" width="15.9970006" height="15.9970006"></rect>
            <path d="M15.9995001,10.8544648 C15.9995001,8.51240392 13.7639193,6.61475973 11.0069362,6.61475973 C8.24845341,6.61475973 6.01287259,8.51290383 6.01287259,10.8544648 C6.01287259,13.1960257 8.24845341,15.0941698 11.0069362,15.0941698 C11.8732738,15.0941698 12.6886209,14.9052053 13.3999875,14.5747672 L15.3681185,15.4266075 L15.1401612,13.2310192 C15.6835593,12.5531463 16,11.7342998 16,10.8544648 L15.9995001,10.8544648 Z M9.3237518,9.70568018 C8.93082547,9.70568018 8.61338499,9.3877398 8.61338499,8.99531338 C8.61338499,8.60288696 8.93082547,8.28494657 9.3237518,8.28494657 C9.71617822,8.28494657 10.0336187,8.60338686 10.0336187,8.99531338 C10.0336187,9.38723989 9.7151784,9.70568018 9.3237518,9.70568018 L9.3237518,9.70568018 Z M12.6886209,9.70568018 C12.2971943,9.70568018 11.978754,9.3877398 11.978754,8.99531338 C11.978754,8.60288696 12.2971943,8.28494657 12.6886209,8.28494657 C13.0820471,8.28494657 13.3999875,8.60338686 13.3999875,8.99531338 C13.3999875,9.38723989 13.0820471,9.70568018 12.6886209,9.70568018 Z M11.0069362,6.05336499 C11.7782916,6.05336499 12.5131538,6.19083922 13.1825283,6.43829282 C13.1875273,6.3488096 13.1980254,6.26282572 13.1980254,6.17284259 C13.1980254,3.0784228 10.2430794,0.570393051 6.59876273,0.570393051 C2.95544585,0.570393051 0.000499906268,3.07792289 0.000499906268,6.17284259 C0.000499906268,7.33662438 0.419421358,8.41892145 1.13628695,9.31475348 L0.835343373,12.2152096 L3.43535587,11.0889208 C4.07923514,11.3888646 4.79110167,11.5913266 5.54246079,11.6948072 C5.48597138,11.4213585 5.45147785,11.141411 5.45147785,10.8544648 C5.45197775,8.2074611 7.9440105,6.0538649 11.0069362,6.0538649 L11.0069362,6.05336499 Z M8.82284572,2.77897894 C9.34124852,2.77897894 9.76016997,3.19890021 9.76016997,3.71630319 C9.76016997,4.23470599 9.34124852,4.65462726 8.82284572,4.65462726 C8.30444292,4.65462726 7.88502156,4.23470599 7.88502156,3.71630319 C7.88502156,3.1984003 8.30494282,2.77897894 8.82284572,2.77897894 Z M4.37467975,4.65462726 C3.85627695,4.65462726 3.4373555,4.23470599 3.4373555,3.71630319 C3.4373555,3.1984003 3.85677685,2.77897894 4.37467975,2.77897894 C4.89308255,2.77897894 5.31250391,3.19890021 5.31250391,3.71630319 C5.31250391,4.23370618 4.89258264,4.65462726 4.37467975,4.65462726 Z" id="Shape" fill="#51C332"></path>
        </g>
    </g>
</svg>