<?xml version="1.0" encoding="UTF-8"?>
<svg width="16px" height="16px" viewBox="0 0 16 16" version="1.1" xmlns="http://www.w3.org/2000/svg" xmlns:xlink="http://www.w3.org/1999/xlink">
    <title>weibo</title>
    <g id="icons" stroke="none" stroke-width="1" fill="none" fill-rule="evenodd">
        <g id="weibo" fill-rule="nonzero">
            <rect id="Rectangle" fill="#000000" opacity="0" x="0" y="0" width="16" height="16"></rect>
            <path d="M13.303125,9.22176562 C12.9563125,8.186875 11.8908594,7.80892187 11.64825,7.78640625 C11.4057031,7.763875 11.1858594,7.63109375 11.3467656,7.35664062 C11.5077344,7.08217187 11.8046406,6.28345312 11.2335156,5.721 C10.6622031,5.1563125 9.41301562,5.37003125 8.52892187,5.73453125 C7.64714062,6.09901562 7.69470312,5.84476562 7.72189062,5.59507812 C7.75142187,5.33182812 8.2274375,3.86039062 6.77203125,3.68265625 C4.86554687,3.4509375 2.41953125,5.79303125 1.5558125,7.14296875 C0.25,9.18135937 0.456375,10.5605156 0.456375,10.5605156 L0.4654375,10.5605156 C0.621828125,12.4639375 3.44648438,13.9803437 6.9080625,13.9803437 C9.884625,13.9803437 12.3918281,12.8576406 13.1330938,11.33225 C13.1330938,11.33225 13.1353281,11.3254844 13.1420781,11.3141875 C13.2192344,11.1500312 13.2781719,10.9834375 13.3145,10.8102187 C13.4186875,10.4007656 13.4981719,9.80685937 13.303125,9.22178125 L13.303125,9.22176562 Z M6.4796875,13.1478594 C4.01546875,13.1478594 2.01603125,11.833875 2.01603125,10.2139844 C2.01603125,8.594125 4.01321875,7.28023437 6.4796875,7.28023437 C8.94382812,7.28023437 10.9433281,8.594125 10.9433281,10.2139844 C10.9433281,11.8360937 8.94382813,13.1478594 6.4796875,13.1478594 Z" id="Shape" fill="#E71F19"></path>
            <path d="M12.548375,6.64573437 C12.593625,6.66601562 12.6412656,6.6749375 12.6889063,6.6749375 C12.8294219,6.6749375 12.9654688,6.5916875 13.0220781,6.4544375 C13.1150469,6.23625 13.1625938,6.00454687 13.1625938,5.76373438 C13.1625938,4.78735938 12.3624688,3.99309375 11.3785156,3.99309375 C11.1382188,3.99309375 10.9047656,4.0403125 10.6848281,4.1325625 C10.5011563,4.2090625 10.4150938,4.4205625 10.4920938,4.6050625 C10.5691719,4.78728125 10.7822813,4.87278125 10.9681094,4.79628125 C11.0996563,4.74221875 11.2379219,4.713 11.3807656,4.713 C11.965625,4.713 12.4393906,5.18551563 12.4393906,5.76373438 C12.4393906,5.90542188 12.4122812,6.04275 12.3555,6.17314063 C12.3172716,6.26122908 12.3161688,6.36100917 12.3524411,6.44992099 C12.3887133,6.53883281 12.4592973,6.60936775 12.5482344,6.64557812 L12.5483906,6.64573437 L12.548375,6.64573437 Z" id="Path" fill="#F5AA15"></path>
            <path d="M11.3581563,1.78370312 C10.9523906,1.78370312 10.551125,1.84220312 10.1657344,1.95467187 C9.877875,2.04017187 9.71467187,2.33939062 9.79854687,2.62514062 C9.884625,2.91092187 10.1861094,3.07290625 10.474125,2.98965625 C10.7613366,2.90594962 11.0589953,2.86352466 11.3581562,2.86365625 C13.0652344,2.86365625 14.4548594,4.24289062 14.4548594,5.93703125 C14.4548594,6.24071875 14.4094687,6.54217187 14.3233125,6.83015625 C14.23725,7.11592187 14.3981562,7.41746875 14.686,7.50285937 C14.7382187,7.51870313 14.7925156,7.52539062 14.8447344,7.52539062 C15.0782187,7.52539062 15.2935625,7.37464062 15.3661406,7.14289062 C15.4840625,6.75373438 15.5452344,6.34873437 15.5452344,5.93703125 C15.543,3.64659375 13.6658906,1.78370312 11.3581562,1.78370312 L11.3581563,1.78370312 Z" id="Path" fill="#F5AA15"></path>
            <path d="M6.06709375,8.35109375 C4.75223438,8.35109375 3.68678125,9.27575 3.68678125,10.4188125 C3.68678125,11.5616406 4.75223438,12.4864375 6.06709375,12.4864375 C7.38190625,12.4864375 8.44735938,11.5617188 8.44735938,10.4188125 C8.44735938,9.27584375 7.38189063,8.35109375 6.06709375,8.35109375 Z M5.28953125,11.7619219 C4.8293125,11.7619219 4.4553125,11.39075 4.4553125,10.934 C4.4553125,10.4773125 4.82939063,10.1060469 5.28953125,10.1060469 C5.74973438,10.1060469 6.12375,10.4772969 6.12375,10.934 C6.12375,11.3906719 5.74973438,11.7619219 5.28953125,11.7619219 Z M6.84921875,10.2702813 C6.7495,10.4435 6.54771875,10.5155313 6.400375,10.4299531 C6.25303125,10.3467813 6.21678125,10.1375 6.31646875,9.96428125 C6.41625,9.791 6.61798438,9.71896875 6.76529688,9.80453125 C6.91264063,9.89003125 6.94896875,10.0992813 6.84920313,10.2702813 L6.84921875,10.2702813 Z" id="Shape" fill="#040000"></path>
        </g>
    </g>
</svg>