<?xml version="1.0" encoding="UTF-8"?>
<svg width="16px" height="16px" viewBox="0 0 16 16" version="1.1" xmlns="http://www.w3.org/2000/svg" xmlns:xlink="http://www.w3.org/1999/xlink">
    <title>zhihu</title>
    <g id="icons" stroke="none" stroke-width="1" fill="none" fill-rule="evenodd">
        <g id="zhihu" fill-rule="nonzero">
            <rect id="Rectangle" fill="#000000" opacity="0" x="0" y="0" width="16" height="16"></rect>
            <path d="M8.94107142,2.96607142 L8.94107142,13.1964286 L10.0125,13.1964286 L10.4625,14.4714286 L12.3625,13.1964286 L14.7107143,13.1964286 L14.7107143,2.96607142 L8.94107142,2.96607142 Z M13.3642857,11.8410714 L12.2946429,11.8410714 L10.9535714,12.7410714 L10.6357143,11.8410714 L10.3142857,11.8410714 L10.3142857,4.3625 L13.3625,4.3625 L13.3625,11.8410714 L13.3642857,11.8410714 Z M8.25178572,7.55178572 L5.88035714,7.55178572 C5.91785714,6.75 5.95714286,5.68928572 5.99821428,4.46428572 L8.33571428,4.46428572 L8.33392858,4.31964286 C8.33392858,4.30892858 8.33035716,4.05714286 8.29285714,3.8 C8.25535714,3.53214286 8.175,3.17678572 7.91785714,3.17678572 L3.99642858,3.17678572 C4.075,2.80892858 4.27678572,1.93214286 4.52142858,1.50178572 L4.63571428,1.30178572 L4.40535714,1.28928572 C4.39107142,1.28928572 4.05535714,1.2732143 3.66607142,1.47857142 C3.02857142,1.81785714 2.74285714,2.48571428 2.61785714,2.98571428 C2.28928572,4.29107142 1.82142856,5.19821428 1.62321428,5.58571428 C1.5642857,5.7 1.52857142,5.76785714 1.5125,5.81428572 C1.48035714,5.90178572 1.49821428,5.98928572 1.5625,6.04642858 C1.75,6.21607144 2.24464286,5.99464286 2.25,5.99285714 C2.26071428,5.9875 2.27321428,5.98214286 2.28928572,5.975 C2.5375,5.8625 3.2732143,5.52857142 3.53571428,4.46607142 L4.54821428,4.46607142 C4.56071428,5.04107142 4.60357142,6.9375 4.6,7.55357142 L2.08214286,7.55357142 L2.04464286,7.58035714 C1.63214286,7.88214286 1.5,8.70892856 1.49464286,8.74464286 L1.46964286,8.90892858 L4.45178572,8.90892858 C4.23214286,10.3071429 3.97857144,10.9339286 3.84464286,11.1839286 C3.77857144,11.3089286 3.71428572,11.4339286 3.65357142,11.5553571 C3.27321428,12.3089286 2.87857142,13.0875 1.39821428,14.2982143 C1.33392856,14.3482143 1.27321428,14.4410714 1.3125,14.5428571 C1.35535714,14.6553571 1.47857142,14.7053571 1.75178572,14.7053571 C1.8482143,14.7053571 1.9625,14.7 2.09821428,14.6875 C2.9892857,14.6089286 3.89821428,14.3660714 4.51071428,13.1232143 C4.8142857,12.4964286 5.0767857,11.8428571 5.29464286,11.1785714 L7.73214286,14.0357143 L7.82142858,13.8214286 C7.8357143,13.7875 8.1607143,12.9946429 7.9125,12.1089286 L7.90357142,12.0767857 L5.97321428,9.88035714 L5.58035714,10.1767857 C5.69464286,9.7107143 5.76964286,9.2857143 5.80357142,8.90714286 L8.6375,8.90714286 L8.6375,8.76428572 C8.6375,8.0482143 8.30714286,7.6232143 8.29464286,7.60535714 L8.25178572,7.55178572 Z" id="Shape" fill="#0E87EA"></path>
        </g>
    </g>
</svg>